<?xml version="1.0" ?><!DOCTYPE svg  PUBLIC '-//W3C//DTD SVG 1.1//EN'  'http://www.w3.org/Graphics/SVG/1.1/DTD/svg11.dtd'><svg height="1.04167in" style="shape-rendering:geometricPrecision; text-rendering:geometricPrecision; image-rendering:optimizeQuality; fill-rule:evenodd; clip-rule:evenodd" version="1.1" viewBox="0 0 201 201" width="1.04167in" xml:space="preserve" xmlns="http://www.w3.org/2000/svg" xmlns:xlink="http://www.w3.org/1999/xlink"><defs><style type="text/css">
   <![CDATA[
    .fil1 {fill:#FEFEFE}
    .fil0 {fill:#2DC100}
   ]]>
  </style></defs><g id="Layer_x0020_1"><g id="_320501824"><rect class="fil0" height="201" rx="19" ry="19" width="201"/><g><path class="fil1" d="M107 34c37,5 54,23 59,60 0,0 0,0 0,0 0,4 0,8 4,8 4,0 4,-3 4,-6 0,0 0,-1 0,-2 1,-35 -30,-67 -66,-68 -3,0 -9,-2 -9,4 0,4 5,3 8,4z"/><path class="fil1" d="M114 44c-4,-1 -8,-2 -9,2 -1,6 4,5 8,6 23,5 31,13 35,36 0,1 0,2 0,3 0,2 1,5 5,4 2,0 3,-1 3,-3 0,-1 0,-3 0,-4 0,-22 -19,-42 -42,-44z"/><path class="fil1" d="M116 61c-2,0 -5,1 -5,3 -2,4 1,5 4,5 9,2 14,7 15,16 0,2 1,3 1,4 1,0 2,1 4,1 0,0 1,-1 1,-1 2,-1 2,-3 2,-5 0,-11 -12,-23 -22,-23z"/><path class="fil1" d="M164 134c-5,-4 -10,-7 -14,-10 -10,-7 -19,-7 -27,3 -4,6 -9,7 -15,4 -17,-7 -30,-19 -37,-35 -1,-3 -2,-5 -2,-8 -1,-4 1,-8 6,-11 4,-3 8,-6 8,-12 0,-8 -20,-34 -27,-37 -3,-1 -6,-1 -10,0 -18,6 -25,21 -18,38 4,9 9,18 14,26 22,37 54,64 96,81 3,2 6,2 7,3 12,0 26,-11 30,-22 3,-11 -5,-15 -11,-20z"/></g></g></g></svg>