<!-- icon666.com - MILLIONS vector ICONS FREE --><svg version="1.1" id="Capa_1" xmlns="http://www.w3.org/2000/svg" xmlns:xlink="http://www.w3.org/1999/xlink" x="0px" y="0px" viewBox="0 0 109.159 109.159" style="enable-background:new 0 0 109.159 109.159;" xml:space="preserve"><g><path style="fill: rgb(39, 145, 190);" d="M106.007,99.965l-3.096-17.425c-0.82-4.635-5.086-9.026-9.699-10.01l-23.094-4.871 c4.348-4.209,7.687-10.046,9.906-15.908c2.86-1.041,5.733-3.586,6.564-6.911c1.109-4.398-0.061-8.332-2.788-10.046v-3.11 c2.491-7.516,3.794-19.795-7.53-26.408c-5.068-2.963-9.28-3.153-12.451-2.119c-0.494-1.285,0.984-3.153,0.984-3.153 c-2.609-0.089-3.983,1.299-4.549,2.083c-3.486-1.6-8.049-2.287-13.886-1.063c-18.725,3.93-21.115,28.455-17.69,33.831 c-2.67,1.721-3.804,5.608-2.716,9.974c0.834,3.335,3.729,5.891,6.599,6.921c2.18,5.873,5.494,11.71,9.835,15.912L31.921,69.87 c-0.73-1.872-1.832-3.64-3.346-5.146c-2.831-2.831-6.596-4.395-10.593-4.395c-4.001,0-7.766,1.564-10.59,4.388 c-5.844,5.844-5.841,15.339,0.004,21.187c0.444,0.44,0.952,0.809,1.435,1.181L6.537,99.969c-0.429,2.416,0.143,4.71,1.614,6.471 c1.467,1.754,3.633,2.72,6.077,2.72h84.082c2.462,0,4.617-0.966,6.088-2.727C105.871,104.675,106.44,102.381,106.007,99.965z M101.655,104.138c-0.78,0.93-1.968,1.439-3.35,1.439H81.964v-4.166h20.503C102.486,102.438,102.267,103.404,101.655,104.138z M14.228,105.577c-1.374,0-2.559-0.512-3.339-1.439c-0.616-0.734-0.83-1.7-0.82-2.727h20.503v4.166H14.228z M34.151,105.577V95.363 c0-0.991-0.802-1.789-1.789-1.789c-0.988,0-1.789,0.798-1.789,1.789v2.462H10.545l1.557-8.743c1.84,0.787,3.819,1.213,5.88,1.213 c3.994,0,7.759-1.564,10.586-4.395c3.421-3.418,4.778-8.099,4.194-12.558l3.625-0.762c5.307,5.254,12.512,8.274,20.009,8.274 c7.58,0,14.623-2.924,19.981-8.228l16.098,3.393c3.182,0.673,6.345,3.947,6.922,7.136l2.609,14.67H81.975v-2.462 c0-0.991-0.805-1.789-1.789-1.789c-0.988,0-1.789,0.798-1.789,1.789v10.214H34.151z M17.971,63.915 c3.046,0,5.905,1.188,8.063,3.346c0.995,0.995,1.739,2.154,2.294,3.364c0.247,0.558,0.437,1.124,0.594,1.711 c0.157,0.587,0.265,1.163,0.333,1.757c0.358,3.318-0.68,6.757-3.214,9.287c-3.471,3.468-8.994,4.094-13.263,1.972 c-0.573-0.279-1.12-0.608-1.643-0.988c-0.415-0.308-0.837-0.608-1.217-0.977c-0.129-0.132-0.222-0.293-0.354-0.433 C5.513,78.488,5.61,71.574,9.915,67.261C12.066,65.096,14.922,63.915,17.971,63.915z M56.265,73.843 c3.804,0,7.236-1.245,10.286-3.278l5.497,1.16c-4.409,3.593-9.856,5.558-15.654,5.558c-5.737,0-11.273-2.026-15.683-5.604 l5.247-1.106C49.007,72.605,52.446,73.843,56.265,73.843z M35.529,48.243c-1.521,0.329-5.028-1.585-5.73-4.363 c-0.712-2.838-0.036-5.486,1.51-5.919c0.455-0.125,0.931-0.029,1.406,0.222v-4.245c0.007-0.007,0.021-0.025,0.029-0.032 c-0.014-0.05-0.018-0.122-0.029-0.19v-1.489c0.394-3.6,3.819-10.368,22.472-4.252c6.442,2.112,10.422-1.235,12.419-5.669 c6.352,0.701,10.586,7.92,12.215,12.365v3.511c0.233-0.132,0.472-0.222,0.709-0.258c-0.011,0.032-0.004,0.089-0.018,0.111 c0.05,0.068,0.147,0.021,0.276-0.104c0.147,0,0.293-0.021,0.437,0.025c1.546,0.433,2.222,3.078,1.51,5.916 c-0.691,2.759-4.18,4.66-5.69,4.373c-2.026,6.159-6.059,14.029-11.817,18.377c-0.687,0.519-1.417,0.97-2.154,1.385 c-1.045,0.58-2.137,1.041-3.278,1.356c-1.131,0.315-2.312,0.505-3.539,0.505c-1.245,0-2.437-0.183-3.582-0.497 c-1.142-0.315-2.24-0.777-3.289-1.349c-0.744-0.412-1.467-0.866-2.162-1.385C41.516,62.344,37.562,54.557,35.529,48.243z M11.851,77.583l-0.741-0.601l1.124-1.392l1.127-1.385l0.909,0.734l0.072,0.057l1.432,1.167l1.127,0.923l2.942-2.845l1.664-1.6 l0.766-0.734l1.843-1.775l1.109,1.152l0.132,0.132l1.242,1.292l-0.15,0.147l-2.43,2.33l-6.911,6.664l-2.466-2.008l-1.392-1.131 L11.851,77.583z" fill="#010002"></path></g></svg>